<mxfile host="app.diagrams.net" modified="2024-06-09T12:17:21.743Z" agent="Mozilla/5.0 (Windows NT 10.0; Win64; x64) AppleWebKit/537.36 (KHTML, like Gecko) Chrome/125.0.0.0 Safari/537.36" version="24.5.2" etag="7we-F7dg-5t7P2-vkYL-" type="github">
  <diagram name="PaginÄƒ-1" id="or3lgEquFM7u79cTVg6w">
    <mxGraphModel>
      <root>
        <mxCell id="0" />
        <mxCell id="1" parent="0" />
      </root>
    </mxGraphModel>
  </diagram>
</mxfile>
